<svg width="25" height="24" viewBox="0 0 25 24" fill="none" xmlns="http://www.w3.org/2000/svg">
<path d="M13.7801 11.9999L20.0801 5.70994C20.2684 5.52164 20.3741 5.26624 20.3741 4.99994C20.3741 4.73364 20.2684 4.47825 20.0801 4.28994C19.8918 4.10164 19.6364 3.99585 19.3701 3.99585C19.1038 3.99585 18.8484 4.10164 18.6601 4.28994L12.3701 10.5899L6.08006 4.28994C5.89175 4.10164 5.63636 3.99585 5.37006 3.99585C5.10375 3.99585 4.84836 4.10164 4.66006 4.28994C4.47175 4.47825 4.36596 4.73364 4.36596 4.99994C4.36596 5.26624 4.47175 5.52164 4.66006 5.70994L10.9601 11.9999L4.66006 18.2899C4.56633 18.3829 4.49193 18.4935 4.44116 18.6154C4.3904 18.7372 4.36426 18.8679 4.36426 18.9999C4.36426 19.132 4.3904 19.2627 4.44116 19.3845C4.49193 19.5064 4.56633 19.617 4.66006 19.7099C4.75302 19.8037 4.86362 19.8781 4.98548 19.9288C5.10734 19.9796 5.23804 20.0057 5.37006 20.0057C5.50207 20.0057 5.63277 19.9796 5.75463 19.9288C5.87649 19.8781 5.98709 19.8037 6.08006 19.7099L12.3701 13.4099L18.6601 19.7099C18.753 19.8037 18.8636 19.8781 18.9855 19.9288C19.1073 19.9796 19.238 20.0057 19.3701 20.0057C19.5021 20.0057 19.6328 19.9796 19.7546 19.9288C19.8765 19.8781 19.9871 19.8037 20.0801 19.7099C20.1738 19.617 20.2482 19.5064 20.2989 19.3845C20.3497 19.2627 20.3759 19.132 20.3759 18.9999C20.3759 18.8679 20.3497 18.7372 20.2989 18.6154C20.2482 18.4935 20.1738 18.3829 20.0801 18.2899L13.7801 11.9999Z" fill="white"/>
</svg>
