<svg width="25" height="25" viewBox="0 0 25 25" fill="none" xmlns="http://www.w3.org/2000/svg">
<path d="M21.875 12.5V4.6875C21.875 4.2731 21.7104 3.87567 21.4174 3.58265C21.1243 3.28962 20.7269 3.125 20.3125 3.125H4.6875C4.2731 3.125 3.87567 3.28962 3.58265 3.58265C3.28962 3.87567 3.125 4.2731 3.125 4.6875V20.3125C3.125 20.7269 3.28962 21.1243 3.58265 21.4174C3.87567 21.7104 4.2731 21.875 4.6875 21.875H12.5" stroke="white" stroke-width="2" stroke-linecap="round" stroke-linejoin="round"/>
<path d="M16.6666 19.7917C18.3925 19.7917 19.7916 18.3926 19.7916 16.6667C19.7916 14.9408 18.3925 13.5417 16.6666 13.5417C14.9407 13.5417 13.5416 14.9408 13.5416 16.6667C13.5416 18.3926 14.9407 19.7917 16.6666 19.7917Z" stroke="white" stroke-width="2"/>
<path d="M19.2708 18.75L21.875 20.8333M7.29163 8.33331H17.7083M7.29163 12.5H11.4583" stroke="white" stroke-width="2" stroke-linecap="round" stroke-linejoin="round"/>
</svg>
