<svg width="29" height="29" viewBox="0 0 29 29" fill="none" xmlns="http://www.w3.org/2000/svg">
<path d="M20.1 15.9626C20.7365 15.9626 21.347 16.1937 21.7971 16.6052C22.2471 17.0166 22.5 17.5746 22.5 18.1565V18.6794C22.5 21.2952 19.132 23.2755 14.5 23.2755C9.868 23.2755 6.5 21.3983 6.5 18.6794V18.1565C6.5 17.5746 6.75286 17.0166 7.20294 16.6052C7.65303 16.1937 8.26348 15.9626 8.9 15.9626H20.1ZM14.5 5.72449C15.1303 5.72449 15.7545 5.83798 16.3369 6.05849C16.9192 6.27899 17.4484 6.60219 17.8941 7.00963C18.3398 7.41708 18.6934 7.90078 18.9346 8.43313C19.1758 8.96548 19.3 9.53604 19.3 10.1123C19.3 10.6885 19.1758 11.259 18.9346 11.7914C18.6934 12.3237 18.3398 12.8074 17.8941 13.2149C17.4484 13.6223 16.9192 13.9455 16.3369 14.166C15.7545 14.3865 15.1303 14.5 14.5 14.5C13.227 14.5 12.0061 14.0377 11.1059 13.2149C10.2057 12.392 9.7 11.276 9.7 10.1123C9.7 8.94854 10.2057 7.8325 11.1059 7.00963C12.0061 6.18677 13.227 5.72449 14.5 5.72449Z" fill="currentColor"/>
</svg>
