<svg width="29" height="29" viewBox="0 0 29 29" fill="none" xmlns="http://www.w3.org/2000/svg">
<path d="M14 24.0001C8.477 24.0001 4 19.5231 4 14.0001C4 8.47712 8.477 4.00012 14 4.00012C19.523 4.00012 24 8.47712 24 14.0001C24 19.5231 19.523 24.0001 14 24.0001ZM13 17.0001V19.0001H15V17.0001H13ZM15 15.3551C15.8037 15.1129 16.4936 14.5901 16.9442 13.8819C17.3947 13.1737 17.5759 12.3272 17.4547 11.4966C17.3336 10.666 16.9181 9.90656 16.284 9.35658C15.6499 8.8066 14.8394 8.50266 14 8.50012C13.1909 8.50006 12.4067 8.78028 11.7808 9.29312C11.1549 9.80595 10.726 10.5198 10.567 11.3131L12.529 11.7061C12.5847 11.4276 12.7183 11.1705 12.9144 10.9649C13.1104 10.7594 13.3608 10.6137 13.6364 10.5448C13.912 10.476 14.2015 10.4868 14.4712 10.5761C14.7409 10.6654 14.9797 10.8294 15.1598 11.049C15.34 11.2687 15.454 11.535 15.4887 11.817C15.5234 12.0989 15.4773 12.3849 15.3558 12.6417C15.2343 12.8985 15.0423 13.1155 14.8023 13.2675C14.5623 13.4194 14.2841 13.5001 14 13.5001C13.7348 13.5001 13.4804 13.6055 13.2929 13.793C13.1054 13.9806 13 14.2349 13 14.5001V16.0001H15V15.3551Z" fill="white"/>
</svg>
