<svg width="29" height="29" viewBox="0 0 29 29" fill="none" xmlns="http://www.w3.org/2000/svg">
<path d="M16.6041 4.84713C16.4466 4.71842 16.2652 4.62222 16.0703 4.56411C15.8754 4.506 15.6709 4.48713 15.4686 4.50858C15.2663 4.53004 15.0703 4.5914 14.892 4.68911C14.7136 4.78682 14.5563 4.91895 14.4294 5.07783L9.97525 10.6578H11.9439L15.6306 6.03756L16.8148 7.00498L13.8465 10.6578H15.8274L18.0068 7.97547L20.6491 10.1333L20.1908 10.6578H20.6522C21.1109 10.6573 21.567 10.7252 22.0057 10.8593C22.1732 10.5449 22.2265 10.1822 22.1564 9.83298C22.0862 9.48376 21.8971 9.1697 21.6212 8.94443L16.6041 4.84713ZM6.81 11.4268C6.81 11.2228 6.89102 11.0272 7.03524 10.883C7.17945 10.7388 7.37505 10.6578 7.57901 10.6578H8.43723L9.65996 9.11976H7.57901C6.96714 9.11976 6.38034 9.36282 5.94769 9.79548C5.51503 10.2281 5.27197 10.8149 5.27197 11.4268V20.6549C5.27197 21.6747 5.67708 22.6527 6.39816 23.3738C7.11925 24.0949 8.09726 24.5 9.11703 24.5H20.6522C21.468 24.5 22.2504 24.1759 22.8273 23.599C23.4042 23.0222 23.7283 22.2398 23.7283 21.424V15.2719C23.7283 14.456 23.4042 13.6736 22.8273 13.0968C22.2504 12.5199 21.468 12.1958 20.6522 12.1958H7.57901C7.37505 12.1958 7.17945 12.1148 7.03524 11.9706C6.89102 11.8264 6.81 11.6308 6.81 11.4268ZM18.3452 18.3479H19.8832C20.0872 18.3479 20.2828 18.4289 20.427 18.5731C20.5712 18.7174 20.6522 18.913 20.6522 19.1169C20.6522 19.3209 20.5712 19.5165 20.427 19.6607C20.2828 19.8049 20.0872 19.8859 19.8832 19.8859H18.3452C18.1412 19.8859 17.9456 19.8049 17.8014 19.6607C17.6572 19.5165 17.5762 19.3209 17.5762 19.1169C17.5762 18.913 17.6572 18.7174 17.8014 18.5731C17.9456 18.4289 18.1412 18.3479 18.3452 18.3479Z" fill="white"/>
</svg>
