<svg width="10" height="12" viewBox="0 0 10 12" fill="none" xmlns="http://www.w3.org/2000/svg">
<path d="M2 5.5C2 4.086 2 3.3785 2.4395 2.9395C2.8785 2.5 3.586 2.5 5 2.5H6.5C7.914 2.5 8.6215 2.5 9.0605 2.9395C9.5 3.3785 9.5 4.086 9.5 5.5V8C9.5 9.414 9.5 10.1215 9.0605 10.5605C8.6215 11 7.914 11 6.5 11H5C3.586 11 2.8785 11 2.4395 10.5605C2 10.1215 2 9.414 2 8V5.5Z" stroke="#D9D9D9"/>
<path d="M2 9.5C1.60218 9.5 1.22064 9.34197 0.93934 9.06066C0.658035 8.77936 0.5 8.39783 0.5 8V5C0.5 3.1145 0.5 2.1715 1.086 1.586C1.6715 1 2.6145 1 4.5 1H6.5C6.89782 1 7.27936 1.15804 7.56066 1.43934C7.84196 1.72064 8 2.10218 8 2.5" stroke="#D9D9D9"/>
</svg>
